# xmcd CD database file
#
# Track frame offsets:
#	150
#	14045
#	28575
#	40260
#	53765
#	74975
#	88265
#	97318
#	110045
#	125418
#	141548
#	155668
#	170638
#	195693
#	221275
#	244835
#	266183
#	292185
#	313305
#
# Disc length: 4433 seconds
#
# Revision: 4
# Processed by: cddbd v1.5PL3 Copyright (c) Steve Scherf et al.
# Submitted via: CDex 1.51
#
DISCID=41114f13
DTITLE=Various Artist - The 1st Note in Black Music  [disc 3]
DYEAR=1992
DGENRE=Blues
TTITLE0=Day-O  (Banana Boat Song) - Harry Belafonte (1955)
TTITLE1=Love Me or Leave Me - Lena Horne (1955)
TTITLE2=God Bless the Child - Sam Cooke (1961)
TTITLE3=C'est Si Bon  (It's So Good) - Eartha Kitt (1953)
TTITLE4=Shout!  (parts 1 and 2) - The Isley Brothers (1959)
TTITLE5=Love is Strange - Mickey and Sylvia (1956)
TTITLE6=(I'm) All Shook Up - Elvis Presley (1957)
TTITLE7=To be Young, Gifted and Black - Nina Simone (1968)
TTITLE8=Everybody Plays the Fool - The Main Ingredient (1971)
TTITLE9=Cave Man  (Troglodyte) - Jimmy Castor (1971)
TTITLE10=Rock the Boat - Hues Corporation (1973)
TTITLE11=Shame - Evelyn ''Champagne'' King (1977)
TTITLE12=Native New Yorker - Odyssey (1979)
TTITLE13=I'm So Excited - The Pointer Sisters (1982)
TTITLE14=Parents Just Don't Understand - D.J. Jazzy Jeff and The Fresh Prince (1987)
TTITLE15=Wild, Wild West - Kool Moe Dee (1987)
TTITLE16=I Like the Way  (The Kissing Game) - Hi-Five (1990)
TTITLE17=Girls' Nite Out - Tyler Collings (1989)
TTITLE18=You're Gonna Get Served - Gene Rice (1991)
EXTD=RCA 07863 61144-2 disc 3 YEAR: 1992
EXTT0=
EXTT1=
EXTT2=
EXTT3=
EXTT4=
EXTT5=
EXTT6=
EXTT7=
EXTT8=
EXTT9=
EXTT10=
EXTT11=
EXTT12=
EXTT13=
EXTT14=
EXTT15=
EXTT16=
EXTT17=
EXTT18=
PLAYORDER=
